<svg xmlns="http://www.w3.org/2000/svg" viewBox="0 0 292 64" role="img" aria-labelledby="title"><title id="title">Koqoi Slides</title><rect width="64" height="64" rx="18" fill="#102a2e"/><path d="M15 17.5C15 13.9 17.9 11 21.5 11h21C46.1 11 49 13.9 49 17.5v21c0 3.6-2.9 6.5-6.5 6.5H33l-8.8 7.1c-1.7 1.4-4.2.2-4.2-2V45.2c-2.9-.7-5-3.3-5-6.4V17.5Z" fill="#fffdf8"/><path d="M25 23.5h15M25 30h10" fill="none" stroke="#007f7b" stroke-width="4" stroke-linecap="round"/><circle cx="40.5" cy="36.5" r="6.5" fill="#ff6846"/><path d="m38.2 36.6 1.7 1.8 3.3-3.8" fill="none" stroke="#fff" stroke-width="2" stroke-linecap="round" stroke-linejoin="round"/><text x="80" y="39" fill="#102a2e" font-family="Manrope,Arial,sans-serif" font-size="29" font-weight="800" letter-spacing="-1.2">Koqoi</text><text x="163" y="39" fill="#007f7b" font-family="Manrope,Arial,sans-serif" font-size="29" font-weight="600" letter-spacing="-1.2">Slides</text><circle cx="270" cy="19" r="5" fill="#ff6846"/></svg>
